# xmcd CD database file
#
# Track frame offsets:
#	150
#	15135
#	30403
#	45377
#	62895
#	74139
#	88532
#	104228
#	123648
#	136900
#	151138
#	166264
#	178183
#	194820
#
# Disc length: 2873 seconds
#
# Revision: 2
# Processed by: cddbd v1.5.2PL0 Copyright (c) Steve Scherf et al.
# Submitted via: CDex 1.50
#
DISCID=c20b370e
DTITLE=Edson and Hudson - Galera Coração
DYEAR=2005
DGENRE=Country
TTITLE0=Galera Coração
TTITLE1=Esqueça Que Eu Te Amo
TTITLE2=Tá No Meu Coração
TTITLE3=Não Tem Dia, Não Tem Hora
TTITLE4=Festa Louca
TTITLE5=Por Amar Essa Mulher
TTITLE6=Te Quero Pra Mim
TTITLE7=Vou Tentar Ser Herói
TTITLE8=Abre A Janela
TTITLE9=É Amor Demais
TTITLE10=Amor E Ilusão
TTITLE11=Chega Junto
TTITLE12=Bebo Pa Carai (pot pourri)
TTITLE13=Vai Ser Pior Tentar Outra Vez
EXTD=YEAR: 2005
EXTT0=
EXTT1=
EXTT2=
EXTT3=
EXTT4=
EXTT5=
EXTT6=
EXTT7=
EXTT8=
EXTT9=
EXTT10=
EXTT11=
EXTT12=
EXTT13=
PLAYORDER=
